<svg width="125" height="28" viewBox="0 0 125 28" fill="none" xmlns="http://www.w3.org/2000/svg">
<g clip-path="url(#clip0_729_111)">
<path d="M38 13.2093C38 11.0681 38.5564 9.40723 39.6683 8.22662C40.7802 7.04601 42.319 6.4552 44.2836 6.4552C46.2483 6.4552 47.786 7.04601 48.8989 8.22662C50.0108 9.40723 50.5672 11.0681 50.5672 13.2093V16.8928C50.5672 19.0973 50.0108 20.7743 48.8989 21.9227C47.7871 23.0722 46.2483 23.6469 44.2836 23.6469C42.319 23.6469 40.7802 23.0722 39.6683 21.9227C38.5564 20.7732 38 19.0973 38 16.8928V13.2093ZM44.2836 20.8134C44.8681 20.8134 45.3551 20.723 45.7447 20.5421C46.1343 20.3613 46.4514 20.1051 46.6949 19.7745C46.9384 19.4439 47.1094 19.0511 47.2068 18.5939C47.3042 18.1377 47.3529 17.6333 47.3529 17.0827V13.0204C47.3529 12.5009 47.2959 12.0126 47.1819 11.5564C47.0679 11.1003 46.8897 10.7064 46.6462 10.3758C46.4027 10.0453 46.0856 9.78201 45.696 9.58507C45.3064 9.38814 44.8349 9.28967 44.2836 9.28967C43.7324 9.28967 43.2609 9.38814 42.8713 9.58507C42.4816 9.78201 42.1646 10.0453 41.921 10.3758C41.6775 10.7064 41.4983 11.1003 41.3853 11.5564C41.2713 12.0136 41.2154 12.5009 41.2154 13.0204V17.0827C41.2154 17.6343 41.2641 18.1377 41.3615 18.5939C41.4589 19.0511 41.6299 19.4439 41.8734 19.7745C42.1169 20.1051 42.434 20.3613 42.8236 20.5421C43.2132 20.723 43.7002 20.8134 44.2847 20.8134H44.2836Z" fill="black"/>
<path d="M53.0511 11.6037H58.1658V13.3037H58.6041C58.8311 12.6587 59.2166 12.1583 59.7606 11.8046C60.3046 11.4499 60.9574 11.2731 61.7211 11.2731C62.9221 11.2731 63.8889 11.6388 64.6194 12.3713C65.3499 13.1038 65.7157 14.2171 65.7157 15.7132V16.2327L62.5501 16.516V16.1854C62.5501 15.5404 62.3791 15.0249 62.0382 14.6391C61.6973 14.2533 61.1854 14.0603 60.5035 14.0603C59.8217 14.0603 59.286 14.2884 58.8964 14.7456C58.5067 15.2028 58.3119 15.8559 58.3119 16.7059V20.4839H61.088V23.3173H52.7589V20.4839H55.2427V14.4381H53.0511V11.6047V11.6037Z" fill="black"/>
<path d="M76.3577 21.6163C76.0323 22.3568 75.5784 22.8793 74.994 23.1867C74.4096 23.4942 73.7277 23.6469 72.9485 23.6469C72.218 23.6469 71.532 23.5133 70.8906 23.245C70.2492 22.9777 69.6855 22.5839 69.1984 22.0644C68.7114 21.5449 68.3259 20.9149 68.042 20.1754C67.7581 19.4359 67.6161 18.5929 67.6161 17.6484V17.2706C67.6161 16.3422 67.754 15.5072 68.0306 14.7677C68.3063 14.0282 68.6803 13.3982 69.1508 12.8787C69.6212 12.3593 70.1694 11.9614 70.7942 11.6861C71.4191 11.4108 72.0884 11.2731 72.8034 11.2731C73.6635 11.2731 74.3578 11.4148 74.8852 11.6981C75.4126 11.9815 75.8313 12.4226 76.139 13.0204H76.5773V11.6037H79.6456V19.7745C79.6456 20.2467 79.8653 20.4829 80.3036 20.4829H80.7668V23.3163H78.6726C78.1203 23.3163 77.6695 23.1596 77.3213 22.8441C76.9721 22.5296 76.7981 22.1196 76.7981 21.6163H76.3597H76.3577ZM73.6303 20.8134C74.5236 20.8134 75.2375 20.5261 75.7732 19.9513C76.309 19.3766 76.5773 18.5939 76.5773 17.6012V17.3178C76.5773 16.3261 76.309 15.5434 75.7732 14.9677C75.2375 14.3929 74.5225 14.1056 73.6303 14.1056C72.7382 14.1056 72.0232 14.3929 71.4874 14.9677C70.9517 15.5424 70.6833 16.3251 70.6833 17.3178V17.6012C70.6833 18.5929 70.9517 19.3766 71.4874 19.9513C72.0232 20.5261 72.7371 20.8134 73.6303 20.8134Z" fill="black"/>
<path d="M86.5136 23.3163H83.4454V11.6027H86.5136V13.35H86.9519C87.2276 12.6888 87.6742 12.1774 88.2918 11.8147C88.9083 11.453 89.6316 11.2711 90.4595 11.2711C91.044 11.2711 91.5921 11.3615 92.103 11.5424C92.6149 11.7232 93.0646 12.0026 93.4542 12.3804C93.8438 12.7582 94.1485 13.2384 94.3671 13.8212C94.5868 14.404 94.6956 15.0963 94.6956 15.8991V23.3143H91.6274V16.6547C91.6274 15.8207 91.4201 15.1636 91.0067 14.6823C90.5922 14.202 89.9964 13.9619 89.2161 13.9619C88.3063 13.9619 87.6286 14.2573 87.182 14.8471C86.7354 15.4379 86.5126 16.2286 86.5126 17.2204V23.3133L86.5136 23.3163Z" fill="black"/>
<path d="M106.972 21.6163H106.533C106.403 21.8845 106.245 22.1397 106.059 22.3839C105.872 22.6281 105.629 22.8441 105.328 23.033C105.028 23.2219 104.67 23.3716 104.257 23.4821C103.842 23.5916 103.344 23.6479 102.759 23.6479C102.012 23.6479 101.318 23.5183 100.678 23.2581C100.036 22.9978 99.4757 22.613 98.9969 22.1006C98.5182 21.5891 98.1441 20.9632 97.8768 20.2226C97.6094 19.4831 97.4747 18.6331 97.4747 17.6725V17.2475C97.4747 16.303 97.6167 15.461 97.9006 14.7205C98.1845 13.981 98.5742 13.355 99.0695 12.8426C99.5648 12.3311 100.141 11.9413 100.799 11.674C101.457 11.4067 102.15 11.2721 102.882 11.2721C103.856 11.2721 104.627 11.4489 105.196 11.8036C105.763 12.1583 106.21 12.6577 106.535 13.3027H106.974V11.6027H110.042V26.197C110.042 26.7326 109.867 27.1727 109.519 27.5193C109.169 27.865 108.719 28.0388 108.167 28.0388H100.033V25.2053H106.317C106.755 25.2053 106.975 24.9692 106.975 24.4969V21.6163H106.972ZM103.757 20.8134C104.715 20.8134 105.49 20.518 106.084 19.9282C106.676 19.3374 106.973 18.5627 106.973 17.6022V17.3188C106.973 16.3583 106.676 15.5826 106.084 14.9928C105.491 14.402 104.716 14.1076 103.757 14.1076C102.799 14.1076 102.024 14.3949 101.431 14.9697C100.838 15.5444 100.542 16.3271 100.542 17.3198V17.6032C100.542 18.5949 100.838 19.3786 101.431 19.9534C102.024 20.5281 102.799 20.8155 103.757 20.8155V20.8134Z" fill="black"/>
<path d="M115.959 18.4281C115.974 18.7748 116.06 19.0933 116.215 19.3846C116.369 19.676 116.581 19.9282 116.848 20.1402C117.115 20.3533 117.424 20.518 117.773 20.6366C118.122 20.7542 118.491 20.8134 118.881 20.8134C119.644 20.8134 120.228 20.6838 120.634 20.4236C121.039 20.1634 121.333 19.8529 121.511 19.4912L124.141 20.9079C123.995 21.2073 123.792 21.5178 123.531 21.8403C123.271 22.1629 122.935 22.4583 122.521 22.7255C122.107 22.9938 121.604 23.2138 121.011 23.3867C120.419 23.5595 119.724 23.6469 118.929 23.6469C118.019 23.6469 117.191 23.5052 116.445 23.2219C115.698 22.9385 115.052 22.5296 114.508 21.9941C113.964 21.4595 113.542 20.8054 113.242 20.0337C112.941 19.2621 112.791 18.3889 112.791 17.4123V17.2706C112.791 16.3733 112.95 15.5544 113.266 14.8149C113.583 14.0754 114.017 13.4454 114.568 12.926C115.119 12.4065 115.765 12.0016 116.505 11.7102C117.244 11.4188 118.035 11.2731 118.88 11.2731C119.919 11.2731 120.811 11.4499 121.559 11.8046C122.305 12.1593 122.922 12.6074 123.409 13.151C123.896 13.6946 124.254 14.2924 124.481 14.9456C124.708 15.5987 124.822 16.2327 124.822 16.8466V18.4291H115.957L115.959 18.4281ZM118.856 13.9649C118.077 13.9649 117.444 14.1578 116.957 14.5436C116.47 14.9295 116.153 15.3746 116.006 15.878H121.706C121.608 15.3274 121.304 14.8702 120.793 14.5085C120.281 14.1468 119.636 13.9649 118.856 13.9649Z" fill="black"/>
<path d="M14.001 0C6.26847 0 0 6.26894 0 14C0 21.7311 6.26847 28 14.001 28C21.7336 28 28 21.7331 28 14C28 6.26686 21.7315 0 14.001 0ZM24.2945 14.7888H16.4058C16.2206 14.7888 16.128 15.0126 16.2591 15.1437L21.8387 20.7237C21.9917 20.8767 21.9917 21.1244 21.8387 21.2773L21.2758 21.8372C21.1228 21.9902 20.8751 21.9902 20.7222 21.8372L15.1446 16.2593C15.0135 16.1282 14.7898 16.2208 14.7898 16.406V24.2952C14.7898 24.5107 14.615 24.6855 14.3996 24.6855H13.6025C13.3871 24.6855 13.2123 24.5107 13.2123 24.2952V16.4039C13.2123 16.2187 12.9886 16.1261 12.8574 16.2572L7.27784 21.8372C7.12487 21.9902 6.87721 21.9902 6.72425 21.8372L6.16441 21.2773C6.01145 21.1244 6.01145 20.8767 6.16441 20.7237L11.744 15.1437C11.8751 15.0126 11.7825 14.7888 11.5973 14.7888H3.70552C3.48907 14.7888 3.31322 14.6129 3.31322 14.3965V13.6035C3.31322 13.3871 3.48907 13.2112 3.70552 13.2112H11.5963C11.7815 13.2112 11.8741 12.9874 11.743 12.8563L6.16337 7.2763C6.01041 7.12332 6.01041 6.87772 6.16337 6.72475L6.72321 6.16175C6.87617 6.00877 7.12383 6.00877 7.2768 6.16175L12.8564 11.7418C12.9875 11.8729 13.2112 11.7803 13.2112 11.595V3.70371C13.2112 3.48829 13.3861 3.31346 13.6015 3.31346H14.3965C14.6119 3.31346 14.7888 3.49037 14.7888 3.70579V11.593C14.7888 11.7782 15.0125 11.8708 15.1436 11.7397L20.7211 6.16175C20.8741 6.00877 21.1217 6.00877 21.2747 6.16175L21.8377 6.72475C21.9906 6.87772 21.9906 7.12332 21.8377 7.2763L16.2581 12.8563C16.127 12.9874 16.2196 13.2112 16.4048 13.2112H24.2934C24.5099 13.2112 24.6857 13.3871 24.6857 13.6035V14.3965C24.6857 14.6129 24.5099 14.7888 24.2934 14.7888H24.2945Z" fill="#FF5C33"/>
</g>
<defs>
<clipPath id="clip0_729_111">
<rect width="125" height="28" fill="white"/>
</clipPath>
</defs>
</svg>
